<svg version="1.1" id="Layer_1" xmlns="http://www.w3.org/2000/svg" xmlns:xlink="http://www.w3.org/1999/xlink" x="0px" y="0px"
	 width="100%" viewBox="0 0 973 983" enable-background="new 0 0 973 983" xml:space="preserve">
<path fill="#FFFFFF" opacity="1.000000" stroke="none" 
	d="
M545.000000,984.000000 
	C363.333344,984.000000 182.166672,984.000000 1.000000,984.000000 
	C1.000000,656.333313 1.000000,328.666656 1.000000,1.000000 
	C325.333344,1.000000 649.666687,1.000000 974.000000,1.000000 
	C974.000000,328.666656 974.000000,656.333313 974.000000,984.000000 
	C831.166687,984.000000 688.333313,984.000000 545.000000,984.000000 
M457.438446,9.930365 
	C431.116913,11.373038 405.077026,14.975855 379.454651,21.102571 
	C261.503540,49.306614 166.722748,112.419189 96.329163,211.199371 
	C45.878998,281.993835 17.894615,361.253265 10.735712,447.916840 
	C6.393533,500.482025 10.087893,552.445862 22.671003,603.619141 
	C47.882706,706.150696 101.149673,791.470337 182.472397,858.735718 
	C260.692322,923.434753 351.002563,959.036926 452.157593,966.782654 
	C503.711761,970.730347 554.742737,966.371765 604.660583,952.872620 
	C740.859619,916.040588 843.167908,835.631165 908.948181,710.787231 
	C962.198364,609.724060 975.335632,502.070709 952.932983,390.420380 
	C931.320068,282.705902 877.965332,192.805664 794.045044,122.158989 
	C697.276855,40.696541 584.841125,3.750964 457.438446,9.930365 
z"/>
<path fill="#000000" opacity="1.000000" stroke="none" 
	d="
M457.910370,9.912424 
	C584.841125,3.750964 697.276855,40.696541 794.045044,122.158989 
	C877.965332,192.805664 931.320068,282.705902 952.932983,390.420380 
	C975.335632,502.070709 962.198364,609.724060 908.948181,710.787231 
	C843.167908,835.631165 740.859619,916.040588 604.660583,952.872620 
	C554.742737,966.371765 503.711761,970.730347 452.157593,966.782654 
	C351.002563,959.036926 260.692322,923.434753 182.472397,858.735718 
	C101.149673,791.470337 47.882706,706.150696 22.671003,603.619141 
	C10.087893,552.445862 6.393533,500.482025 10.735712,447.916840 
	C17.894615,361.253265 45.878998,281.993835 96.329163,211.199371 
	C166.722748,112.419189 261.503540,49.306614 379.454651,21.102571 
	C405.077026,14.975855 431.116913,11.373038 457.910370,9.912424 
M415.500000,397.999725 
	C377.178467,398.053406 338.855255,397.918457 300.536255,398.257568 
	C286.082703,398.385468 271.464020,398.605164 257.619904,403.647583 
	C214.914078,419.202209 190.293472,465.088226 201.597244,509.144592 
	C210.224274,542.768433 231.245056,565.724060 265.163239,574.149475 
	C279.795746,577.784241 295.566467,577.771240 310.823914,577.807434 
	C427.122009,578.083069 543.421082,577.963684 659.719849,577.954224 
	C664.551086,577.953857 669.392029,577.995300 674.211792,577.723022 
	C688.153137,576.935547 702.230042,576.900879 715.498169,571.608521 
	C756.768494,555.146912 780.211853,510.921265 769.578369,467.579712 
	C761.217773,433.502075 739.936646,410.303986 705.599915,401.773651 
	C691.283997,398.217133 675.855530,398.256104 660.926758,398.195801 
	C579.452271,397.866547 497.975800,398.015320 415.500000,397.999725 
M749.847351,201.670532 
	C736.371826,186.770966 720.246277,176.109222 700.084106,173.482620 
	C686.748230,171.745285 673.180908,171.160599 659.715454,171.139084 
	C545.725952,170.956879 431.736023,171.019257 317.746216,171.024277 
	C310.914154,171.024582 304.070465,170.935410 297.252472,171.284241 
	C283.805145,171.972183 270.227142,171.981812 257.343231,176.747391 
	C214.647751,192.539932 190.123917,238.378082 201.738663,282.444000 
	C211.112320,318.007202 233.721283,341.440613 270.372162,348.191559 
	C286.918365,351.239349 304.218384,350.854828 321.178619,350.887604 
	C430.835083,351.099579 540.492188,351.001465 650.149109,350.987640 
	C657.981079,350.986664 665.824951,351.093964 673.642517,350.718292 
	C687.757629,350.039948 702.006714,349.966949 715.441956,344.629700 
	C772.705200,321.881409 790.212769,250.295914 749.847351,201.670532 
M303.527618,625.103760 
	C301.028503,625.161072 298.523956,625.132629 296.031189,625.290039 
	C282.924683,626.117920 269.684845,626.115784 257.139343,630.811340 
	C214.838760,646.643799 190.332886,691.864929 201.511017,735.662903 
	C210.691956,771.635315 233.478867,795.041504 270.507751,802.357544 
	C282.324066,804.692200 294.707092,804.807800 306.832611,804.827332 
	C422.964722,805.014404 539.097229,804.966370 655.229614,804.970947 
	C661.393738,804.971191 667.568420,805.042664 673.719910,804.726562 
	C687.667236,804.009888 701.760742,803.987976 715.045349,798.796265 
	C756.701965,782.516663 780.472717,737.443298 769.470093,694.085693 
	C760.940857,660.475098 739.956665,637.557190 706.070801,628.882019 
	C692.733704,625.467590 678.332520,625.251770 664.412415,625.221985 
	C544.448486,624.965454 424.483734,625.084473 303.527618,625.103760 
z"/>
<path fill="#77C1F2" opacity="1.000000" stroke="none" 
	d="
M416.000000,397.999725 
	C497.975800,398.015320 579.452271,397.866547 660.926758,398.195801 
	C675.855530,398.256104 691.283997,398.217133 705.599915,401.773651 
	C739.936646,410.303986 761.217773,433.502075 769.578369,467.579712 
	C780.211853,510.921265 756.768494,555.146912 715.498169,571.608521 
	C702.230042,576.900879 688.153137,576.935547 674.211792,577.723022 
	C669.392029,577.995300 664.551086,577.953857 659.719849,577.954224 
	C543.421082,577.963684 427.122009,578.083069 310.823914,577.807434 
	C295.566467,577.771240 279.795746,577.784241 265.163239,574.149475 
	C231.245056,565.724060 210.224274,542.768433 201.597244,509.144592 
	C190.293472,465.088226 214.914078,419.202209 257.619904,403.647583 
	C271.464020,398.605164 286.082703,398.385468 300.536255,398.257568 
	C338.855255,397.918457 377.178467,398.053406 416.000000,397.999725 
z"/>
<path fill="#77C1F2" opacity="1.000000" stroke="none" 
	d="
M750.069153,201.947784 
	C790.212769,250.295914 772.705200,321.881409 715.441956,344.629700 
	C702.006714,349.966949 687.757629,350.039948 673.642517,350.718292 
	C665.824951,351.093964 657.981079,350.986664 650.149109,350.987640 
	C540.492188,351.001465 430.835083,351.099579 321.178619,350.887604 
	C304.218384,350.854828 286.918365,351.239349 270.372162,348.191559 
	C233.721283,341.440613 211.112320,318.007202 201.738663,282.444000 
	C190.123917,238.378082 214.647751,192.539932 257.343231,176.747391 
	C270.227142,171.981812 283.805145,171.972183 297.252472,171.284241 
	C304.070465,170.935410 310.914154,171.024582 317.746216,171.024277 
	C431.736023,171.019257 545.725952,170.956879 659.715454,171.139084 
	C673.180908,171.160599 686.748230,171.745285 700.084106,173.482620 
	C720.246277,176.109222 736.371826,186.770966 750.069153,201.947784 
z"/>
<path fill="#77C1F2" opacity="1.000000" stroke="none" 
	d="
M304.023438,625.097595 
	C424.483734,625.084473 544.448486,624.965454 664.412415,625.221985 
	C678.332520,625.251770 692.733704,625.467590 706.070801,628.882019 
	C739.956665,637.557190 760.940857,660.475098 769.470093,694.085693 
	C780.472717,737.443298 756.701965,782.516663 715.045349,798.796265 
	C701.760742,803.987976 687.667236,804.009888 673.719910,804.726562 
	C667.568420,805.042664 661.393738,804.971191 655.229614,804.970947 
	C539.097229,804.966370 422.964722,805.014404 306.832611,804.827332 
	C294.707092,804.807800 282.324066,804.692200 270.507751,802.357544 
	C233.478867,795.041504 210.691956,771.635315 201.511017,735.662903 
	C190.332886,691.864929 214.838760,646.643799 257.139343,630.811340 
	C269.684845,626.115784 282.924683,626.117920 296.031189,625.290039 
	C298.523956,625.132629 301.028503,625.161072 304.023438,625.097595 
z"/>
</svg>